REM DIRINDEX 1\2,1\3,1\4
REM DIRNAME cjc031,folder01,folder02,folder03
TITLE ""
FILE "CD1-06.mp3" MP3
  TRACK 01 AUDIO
    TITLE "2:cjc031_0164"
    INDEX 01 00:00:00
  TRACK 02 AUDIO
    TITLE "3:cjc031_0165"
    INDEX 01 00:01:21
  TRACK 03 AUDIO
    TITLE "2:cjc031_0166"
    INDEX 01 00:02:67
  TRACK 04 AUDIO
    TITLE "3:cjc031_0167"
    INDEX 01 00:04:29
  TRACK 05 AUDIO
    TITLE "2:cjc031_0168"
    INDEX 01 00:05:56
  TRACK 06 AUDIO
    TITLE "3:cjc031_0169"
    INDEX 01 00:06:69
  TRACK 07 AUDIO
    TITLE "2:cjc031_0170"
    INDEX 01 00:08:26
  TRACK 08 AUDIO
    TITLE "3:cjc031_0171"
    INDEX 01 00:09:44
  TRACK 09 AUDIO
    TITLE "2:cjc031_0172"
    INDEX 01 00:11:09
  TRACK 10 AUDIO
    TITLE "3:cjc031_0173"
    INDEX 01 00:12:28
  TRACK 11 AUDIO
    TITLE "2:cjc031_0174"
    INDEX 01 00:13:73
  TRACK 12 AUDIO
    TITLE "3:cjc031_0175"
    INDEX 01 00:15:11
  TRACK 13 AUDIO
    TITLE "2:cjc031_0176"
    INDEX 01 00:16:40
  TRACK 14 AUDIO
    TITLE "3:cjc031_0177"
    INDEX 01 00:17:70
  TRACK 15 AUDIO
    TITLE "2:cjc031_0178"
    INDEX 01 00:19:40
  TRACK 16 AUDIO
    TITLE "3:cjc031_0179"
    INDEX 01 00:20:47
  TRACK 17 AUDIO
    TITLE "2:cjc031_0180"
    INDEX 01 00:21:72
  TRACK 18 AUDIO
    TITLE "3:cjc031_0181"
    INDEX 01 00:23:06
  TRACK 19 AUDIO
    TITLE "2:cjc031_0182"
    INDEX 01 00:24:35
  TRACK 20 AUDIO
    TITLE "3:cjc031_0183"
    INDEX 01 00:26:01
  TRACK 21 AUDIO
    TITLE "2:cjc031_0184"
    INDEX 01 00:27:47
  TRACK 22 AUDIO
    TITLE "3:cjc031_0185"
    INDEX 01 00:29:09
  TRACK 23 AUDIO
    TITLE "2:cjc031_0186"
    INDEX 01 00:30:61
  TRACK 24 AUDIO
    TITLE "3:cjc031_0187"
    INDEX 01 00:32:01
  TRACK 25 AUDIO
    TITLE "2:cjc031_0188"
    INDEX 01 00:33:48
  TRACK 26 AUDIO
    TITLE "3:cjc031_0189"
    INDEX 01 00:35:00
  TRACK 27 AUDIO
    TITLE "2:cjc031_0190"
    INDEX 01 00:36:50
  TRACK 28 AUDIO
    TITLE "3:cjc031_0191"
    INDEX 01 00:37:65
  TRACK 29 AUDIO
    TITLE "2:cjc031_0192"
    INDEX 01 00:39:27
  TRACK 30 AUDIO
    TITLE "3:cjc031_0193"
    INDEX 01 00:41:02
  TRACK 31 AUDIO
    TITLE "2:cjc031_0194"
    INDEX 01 00:42:65
  TRACK 32 AUDIO
    TITLE "3:cjc031_0195"
    INDEX 01 00:43:72
  TRACK 33 AUDIO
    TITLE "2:cjc031_0196"
    INDEX 01 00:45:33
  TRACK 34 AUDIO
    TITLE "3:cjc031_0197"
    INDEX 01 00:47:01
  TRACK 35 AUDIO
    TITLE "2:cjc031_0198"
    INDEX 01 00:48:36
  TRACK 36 AUDIO
    TITLE "3:cjc031_0199"
    INDEX 01 00:49:47
  TRACK 37 AUDIO
    TITLE "2:cjc031_0200"
    INDEX 01 00:50:62
  TRACK 38 AUDIO
    TITLE "3:cjc031_0201"
    INDEX 01 00:52:14
  TRACK 39 AUDIO
    TITLE "2:cjc031_0202"
    INDEX 01 00:53:53
  TRACK 40 AUDIO
    TITLE "3:cjc031_0203"
    INDEX 01 00:54:74
  TRACK 41 AUDIO
    TITLE "2:cjc031_0204"
    INDEX 01 00:56:57
  TRACK 42 AUDIO
    TITLE "3:cjc031_0205"
    INDEX 01 00:58:01
  TRACK 43 AUDIO
    TITLE "2:cjc031_0206"
    INDEX 01 00:59:73
  TRACK 44 AUDIO
    TITLE "3:cjc031_0207"
    INDEX 01 01:01:15
  TRACK 45 AUDIO
    TITLE "2:cjc031_0208"
    INDEX 01 01:02:42
  TRACK 46 AUDIO
    TITLE "3:cjc031_0209"
    INDEX 01 01:03:63
  TRACK 47 AUDIO
    TITLE "2:cjc031_0210"
    INDEX 01 01:05:17
  TRACK 48 AUDIO
    TITLE "3:cjc031_0211"
    INDEX 01 01:06:36
  TRACK 49 AUDIO
    TITLE "2:cjc031_0212"
    INDEX 01 01:07:59
  TRACK 50 AUDIO
    TITLE "3:cjc031_0213"
    INDEX 01 01:09:12
  TRACK 51 AUDIO
    TITLE "2:cjc031_0214"
    INDEX 01 01:10:47
  TRACK 52 AUDIO
    TITLE "3:cjc031_0215"
    INDEX 01 01:11:66
  TRACK 53 AUDIO
    TITLE "2:cjc031_0216"
    INDEX 01 01:13:22
  TRACK 54 AUDIO
    TITLE "3:cjc031_0217"
    INDEX 01 01:14:51
  TRACK 55 AUDIO
    TITLE "2:cjc031_0218"
    INDEX 01 01:16:32
  TRACK 56 AUDIO
    TITLE "3:cjc031_0219"
    INDEX 01 01:17:51
  TRACK 57 AUDIO
    TITLE "2:cjc031_0220"
    INDEX 01 01:19:28
  TRACK 58 AUDIO
    TITLE "3:cjc031_0221"
    INDEX 01 01:21:33
  TRACK 59 AUDIO
    TITLE "2:cjc031_0222"
    INDEX 01 01:22:70
  TRACK 60 AUDIO
    TITLE "3:cjc031_0223"
    INDEX 01 01:24:14
  TRACK 61 AUDIO
    TITLE "2:cjc031_0224"
    INDEX 01 01:25:45
  TRACK 62 AUDIO
    TITLE "3:cjc031_0225"
    INDEX 01 01:26:70
  TRACK 63 AUDIO
    TITLE "2:cjc031_0226"
    INDEX 01 01:28:33
  TRACK 64 AUDIO
    TITLE "3:cjc031_0227"
    INDEX 01 01:29:43
  TRACK 65 AUDIO
    TITLE "2:cjc031_0228"
    INDEX 01 01:30:73
  TRACK 66 AUDIO
    TITLE "3:cjc031_0229"
    INDEX 01 01:32:27
  TRACK 67 AUDIO
    TITLE "2:cjc031_0230"
    INDEX 01 01:33:62
  TRACK 68 AUDIO
    TITLE "3:cjc031_0231"
    INDEX 01 01:35:04
  TRACK 69 AUDIO
    TITLE "2:cjc031_0232"
    INDEX 01 01:36:52
  TRACK 70 AUDIO
    TITLE "3:cjc031_0233"
    INDEX 01 01:37:66
  TRACK 71 AUDIO
    TITLE "2:cjc031_0234"
    INDEX 01 01:39:57
  TRACK 72 AUDIO
    TITLE "3:cjc031_0235"
    INDEX 01 01:40:70
  TRACK 73 AUDIO
    TITLE "2:cjc031_0236"
    INDEX 01 01:42:33
  TRACK 74 AUDIO
    TITLE "3:cjc031_0237"
    INDEX 01 01:43:58
  TRACK 75 AUDIO
    TITLE "2:cjc031_0238"
    INDEX 01 01:44:58
  TRACK 76 AUDIO
    TITLE "3:cjc031_0239"
    INDEX 01 01:46:21
  TRACK 77 AUDIO
    TITLE "2:cjc031_0240"
    INDEX 01 01:47:60
  TRACK 78 AUDIO
    TITLE "3:cjc031_0241"
    INDEX 01 01:48:67
  TRACK 79 AUDIO
    TITLE "2:cjc031_0242"
    INDEX 01 01:50:09
  TRACK 80 AUDIO
    TITLE "3:cjc031_0243"
    INDEX 01 01:51:34
  TRACK 81 AUDIO
    TITLE "0:"
    INDEX 01 01:53:04
